<mxfile host="www.draw.io" modified="2019-10-22T23:07:48.677Z" agent="Mozilla/5.0 (Windows NT 10.0; Win64; x64) AppleWebKit/537.36 (KHTML, like Gecko) Chrome/77.0.3865.120 Safari/537.36" etag="A1WHqOCUjOIzaBLe0FSV" version="12.1.3" type="github" pages="1">
  <diagram id="dz2CJd2ie592cXoInCTG" name="Page-1">
    <mxGraphModel dx="1408" dy="731" grid="0" gridSize="10" guides="1" tooltips="1" connect="1" arrows="1" fold="1" page="1" pageScale="1" pageWidth="1100" pageHeight="850" math="0" shadow="0">
      <root>
        <mxCell id="0"/>
        <mxCell id="1" parent="0"/>
      </root>
    </mxGraphModel>
  </diagram>
</mxfile>
